<svg width="24" height="24" viewBox="0 0 24 24" fill="none" xmlns="http://www.w3.org/2000/svg">
<path d="M10.4999 14.5V18.5M13.4999 14.5V18.5M6.99989 12H16.9999L16.5282 19.132C16.4587 20.183 15.5859 21 14.5326 21H9.46723C8.41389 21 7.5411 20.183 7.47158 19.132L6.99989 12ZM15.3436 6.90718L15.281 5.86372C15.2294 5.0044 14.6338 4.2745 13.8022 4.0517L12.0293 3.57665C11.1978 3.35384 10.317 3.68812 9.84265 4.40652L9.26668 5.27887L15.3436 6.90718ZM6.75742 7.04882L16.6324 9.69482C17.2617 9.86344 17.9086 9.48999 18.0772 8.86071C18.2458 8.23142 17.8724 7.58459 17.2431 7.41597L7.36803 4.76996C6.73875 4.60135 6.09192 4.97479 5.9233 5.60408C5.75468 6.23337 6.12813 6.8802 6.75742 7.04882Z" stroke="#F65160" stroke-width="1.5" stroke-linecap="round" stroke-linejoin="round"/>
</svg>
